HIERARCHY
ROOT Root
{
  OFFSET 0.0 0.0 0.0
  CHANNELS 6 Xposition Yposition Zposition Zrotation Yrotation Xrotation
  JOINT Hips
  {
    OFFSET 0.0 100.0 0.0
    CHANNELS 6 Xposition Yposition Zposition Zrotation Yrotation Xrotation
    JOINT Spine1
    {
      OFFSET -0.013727 5.003763 -0.053727
      CHANNELS 3 Zrotation Yrotation Xrotation
      JOINT Spine2
      {
        OFFSET -0.0 7.125301 -0.029825
        CHANNELS 3 Zrotation Yrotation Xrotation
        JOINT Chest
        {
          OFFSET -1e-06 7.550063 -0.815971
          CHANNELS 3 Zrotation Yrotation Xrotation
          JOINT Neck1
          {
            OFFSET -0.181677 26.311295 -0.553348
            CHANNELS 3 Zrotation Yrotation Xrotation
            JOINT Neck2
            {
              OFFSET -3e-06 7.709397 2.302585
              CHANNELS 3 Zrotation Yrotation Xrotation
              JOINT Head
              {
                OFFSET -5e-06 6.128916 1.953709
                CHANNELS 3 Zrotation Yrotation Xrotation
                JOINT HeadEnd
                {
                  OFFSET 0.003598 16.065403 -1.835379
                  CHANNELS 3 Zrotation Yrotation Xrotation
                }
                JOINT Jaw
                {
                  OFFSET 0.002637 0.475592 3.094941
                  CHANNELS 3 Zrotation Yrotation Xrotation
                }
                JOINT LeftEye
                {
                  OFFSET 3.206381 5.380205 7.586883
                  CHANNELS 3 Zrotation Yrotation Xrotation
                }
                JOINT RightEye
                {
                  OFFSET -3.22244 5.361869 7.558234
                  CHANNELS 3 Zrotation Yrotation Xrotation
                }
              }
            }
          }
          JOINT LeftShoulder
          {
            OFFSET 1.621652 23.237164 5.113413
            CHANNELS 3 Zrotation Yrotation Xrotation
            JOINT LeftArm
            {
              OFFSET 14.919846 2e-06 -5.502326
              CHANNELS 3 Zrotation Yrotation Xrotation
              JOINT LeftForeArm
              {
                OFFSET 28.739307 0.0 -0.002588
                CHANNELS 3 Zrotation Yrotation Xrotation
                JOINT LeftHand
                {
                  OFFSET 27.093981 -1e-06 0.002609
                  CHANNELS 3 Zrotation Yrotation Xrotation
                  JOINT LeftHandThumb1
                  {
                    OFFSET 2.276482 -1.392045 3.191413
                    CHANNELS 3 Zrotation Yrotation Xrotation
                    JOINT LeftHandThumb2
                    {
                      OFFSET 4.012836 -1.828127 1.641654
                      CHANNELS 3 Zrotation Yrotation Xrotation
                      JOINT LeftHandThumb3
                      {
                        OFFSET 2.798515 0.0 -3e-06
                        CHANNELS 3 Zrotation Yrotation Xrotation
                        JOINT LeftHandThumbEnd
                        {
                          OFFSET 3.180793 -4e-06 4e-06
                          CHANNELS 3 Zrotation Yrotation Xrotation
                        }
                      }
                    }
                  }
                  JOINT LeftHandIndex1
                  {
                    OFFSET 3.247555 -0.531998 2.296169
                    CHANNELS 3 Zrotation Yrotation Xrotation
                    JOINT LeftHandIndex2
                    {
                      OFFSET 6.364578 0.01206 0.1786
                      CHANNELS 3 Zrotation Yrotation Xrotation
                      JOINT LeftHandIndex3
                      {
                        OFFSET 3.662364 0.0 0.0
                        CHANNELS 3 Zrotation Yrotation Xrotation
                        JOINT LeftHandIndex4
                        {
                          OFFSET 2.329242 4e-06 4e-06
                          CHANNELS 3 Zrotation Yrotation Xrotation
                          JOINT LeftHandIndexEnd
                          {
                            OFFSET 2.759615 -0.180537 -0.113024
                            CHANNELS 3 Zrotation Yrotation Xrotation
                          }
                        }
                      }
                    }
                  }
                  JOINT LeftHandMiddle1
                  {
                    OFFSET 3.163495 0.240981 1.000332
                    CHANNELS 3 Zrotation Yrotation Xrotation
                    JOINT LeftHandMiddle2
                    {
                      OFFSET 6.19078 -0.259278 -1.002548
                      CHANNELS 3 Zrotation Yrotation Xrotation
                      JOINT LeftHandMiddle3
                      {
                        OFFSET 4.35652 -4e-06 -1e-06
                        CHANNELS 3 Zrotation Yrotation Xrotation
                        JOINT LeftHandMiddle4
                        {
                          OFFSET 2.996877 -8e-06 0.0
                          CHANNELS 3 Zrotation Yrotation Xrotation
                          JOINT LeftHandMiddleEnd
                          {
                            OFFSET 2.304287 -0.294569 -0.031741
                            CHANNELS 3 Zrotation Yrotation Xrotation
                          }
                        }
                      }
                    }
                  }
                  JOINT LeftHandRing1
                  {
                    OFFSET 2.882643 -0.053652 -0.322543
                    CHANNELS 3 Zrotation Yrotation Xrotation
                    JOINT LeftHandRing2
                    {
                      OFFSET 5.854541 -0.486202 -1.373841
                      CHANNELS 3 Zrotation Yrotation Xrotation
                      JOINT LeftHandRing3
                      {
                        OFFSET 4.350578 0.0 3e-06
                        CHANNELS 3 Zrotation Yrotation Xrotation
                        JOINT LeftHandRing4
                        {
                          OFFSET 2.651321 7e-06 2e-06
                          CHANNELS 3 Zrotation Yrotation Xrotation
                          JOINT LeftHandRingEnd
                          {
                            OFFSET 1.936105 0.077687 -7.1e-05
                            CHANNELS 3 Zrotation Yrotation Xrotation
                          }
                        }
                      }
                    }
                  }
                  JOINT LeftHandPinky1
                  {
                    OFFSET 2.8655 -0.310005 -1.600378
                    CHANNELS 3 Zrotation Yrotation Xrotation
                    JOINT LeftHandPinky2
                    {
                      OFFSET 5.087849 -1.331141 -1.77123
                      CHANNELS 3 Zrotation Yrotation Xrotation
                      JOINT LeftHandPinky3
                      {
                        OFFSET 3.070974 4e-06 0.0
                        CHANNELS 3 Zrotation Yrotation Xrotation
                        JOINT LeftHandPinky4
                        {
                          OFFSET 1.549672 0.0 1e-06
                          CHANNELS 3 Zrotation Yrotation Xrotation
                          JOINT LeftHandPinkyEnd
                          {
                            OFFSET 1.944893 -0.157802 0.057219
                            CHANNELS 3 Zrotation Yrotation Xrotation
                          }
                        }
                      }
                    }
                  }
                }
              }
            }
          }
          JOINT RightShoulder
          {
            OFFSET -1.380118 23.180309 5.214158
            CHANNELS 3 Zrotation Yrotation Xrotation
            JOINT RightArm
            {
              OFFSET -15.037196 1.2e-05 -5.545604
              CHANNELS 3 Zrotation Yrotation Xrotation
              JOINT RightForeArm
              {
                OFFSET -28.736639 2e-06 -0.002597
                CHANNELS 3 Zrotation Yrotation Xrotation
                JOINT RightHand
                {
                  OFFSET -27.133619 -0.0 0.002613
                  CHANNELS 3 Zrotation Yrotation Xrotation
                  JOINT RightHandThumb1
                  {
                    OFFSET -2.274032 -1.383988 3.163127
                    CHANNELS 3 Zrotation Yrotation Xrotation
                    JOINT RightHandThumb2
                    {
                      OFFSET -4.011429 -1.827466 1.640914
                      CHANNELS 3 Zrotation Yrotation Xrotation
                      JOINT RightHandThumb3
                      {
                        OFFSET -2.794935 -4e-06 -3e-06
                        CHANNELS 3 Zrotation Yrotation Xrotation
                        JOINT RightHandThumbEnd
                        {
                          OFFSET -3.183852 4e-06 1e-06
                          CHANNELS 3 Zrotation Yrotation Xrotation
                        }
                      }
                    }
                  }
                  JOINT RightHandIndex1
                  {
                    OFFSET -3.253266 -0.520057 2.282866
                    CHANNELS 3 Zrotation Yrotation Xrotation
                    JOINT RightHandIndex2
                    {
                      OFFSET -6.341917 0.012471 0.178266
                      CHANNELS 3 Zrotation Yrotation Xrotation
                      JOINT RightHandIndex3
                      {
                        OFFSET -3.654871 -8e-06 -0.0
                        CHANNELS 3 Zrotation Yrotation Xrotation
                        JOINT RightHandIndex4
                        {
                          OFFSET -2.327586 0.0 1e-06
                          CHANNELS 3 Zrotation Yrotation Xrotation
                          JOINT RightHandIndexEnd
                          {
                            OFFSET -2.76179 -0.180656 -0.113078
                            CHANNELS 3 Zrotation Yrotation Xrotation
                          }
                        }
                      }
                    }
                  }
                  JOINT RightHandMiddle1
                  {
                    OFFSET -3.168106 0.246593 1.00103
                    CHANNELS 3 Zrotation Yrotation Xrotation
                    JOINT RightHandMiddle2
                    {
                      OFFSET -6.180828 -0.258836 -1.000895
                      CHANNELS 3 Zrotation Yrotation Xrotation
                      JOINT RightHandMiddle3
                      {
                        OFFSET -4.348901 0.0 -0.0
                        CHANNELS 3 Zrotation Yrotation Xrotation
                        JOINT RightHandMiddle4
                        {
                          OFFSET -3.00024 -4e-06 -2e-06
                          CHANNELS 3 Zrotation Yrotation Xrotation
                          JOINT RightHandMiddleEnd
                          {
                            OFFSET -2.30252 -0.29437 -0.031706
                            CHANNELS 3 Zrotation Yrotation Xrotation
                          }
                        }
                      }
                    }
                  }
                  JOINT RightHandRing1
                  {
                    OFFSET -2.88569 -0.067952 -0.308858
                    CHANNELS 3 Zrotation Yrotation Xrotation
                    JOINT RightHandRing2
                    {
                      OFFSET -5.854198 -0.48613 -1.373731
                      CHANNELS 3 Zrotation Yrotation Xrotation
                      JOINT RightHandRing3
                      {
                        OFFSET -4.33881 -4e-06 -0.0
                        CHANNELS 3 Zrotation Yrotation Xrotation
                        JOINT RightHandRing4
                        {
                          OFFSET -2.654903 -4e-06 4e-06
                          CHANNELS 3 Zrotation Yrotation Xrotation
                          JOINT RightHandRingEnd
                          {
                            OFFSET -1.933568 0.077527 -5.2e-05
                            CHANNELS 3 Zrotation Yrotation Xrotation
                          }
                        }
                      }
                    }
                  }
                  JOINT RightHandPinky1
                  {
                    OFFSET -2.866425 -0.342796 -1.584145
                    CHANNELS 3 Zrotation Yrotation Xrotation
                    JOINT RightHandPinky2
                    {
                      OFFSET -5.091371 -1.332055 -1.772385
                      CHANNELS 3 Zrotation Yrotation Xrotation
                      JOINT RightHandPinky3
                      {
                        OFFSET -3.062664 -4e-06 1e-06
                        CHANNELS 3 Zrotation Yrotation Xrotation
                        JOINT RightHandPinky4
                        {
                          OFFSET -1.546529 4e-06 -2e-06
                          CHANNELS 3 Zrotation Yrotation Xrotation
                          JOINT RightHandPinkyEnd
                          {
                            OFFSET -1.945119 -0.157718 0.057211
                            CHANNELS 3 Zrotation Yrotation Xrotation
                          }
                        }
                      }
                    }
                  }
                }
              }
            }
          }
        }
      }
    }
    JOINT LeftLeg
    {
      OFFSET 10.043214 -8.434526 2.595655
      CHANNELS 3 Zrotation Yrotation Xrotation
      JOINT LeftShin
      {
        OFFSET -1e-06 -43.221752 -0.802913
        CHANNELS 3 Zrotation Yrotation Xrotation
        JOINT LeftFoot
        {
          OFFSET 1e-06 -42.155094 -3.481523
          CHANNELS 3 Zrotation Yrotation Xrotation
          JOINT LeftToeBase
          {
            OFFSET 0.0 -5.059472 13.231529
            CHANNELS 3 Zrotation Yrotation Xrotation
            JOINT LeftToeEnd
            {
              OFFSET -0.009607 -1.647619 6.513017
              CHANNELS 3 Zrotation Yrotation Xrotation
            }
          }
        }
      }
    }
    JOINT RightLeg
    {
      OFFSET -10.047278 -8.29526 2.620317
      CHANNELS 3 Zrotation Yrotation Xrotation
      JOINT RightShin
      {
        OFFSET 1e-06 -43.362206 -0.805556
        CHANNELS 3 Zrotation Yrotation Xrotation
        JOINT RightFoot
        {
          OFFSET 2e-06 -42.117393 -3.478398
          CHANNELS 3 Zrotation Yrotation Xrotation
          JOINT RightToeBase
          {
            OFFSET -0.0 -5.079609 13.284196
            CHANNELS 3 Zrotation Yrotation Xrotation
            JOINT RightToeEnd
            {
              OFFSET 0.009532 -1.634378 6.460591
              CHANNELS 3 Zrotation Yrotation Xrotation
            }
          }
        }
      }
    }
  }
}
MOTION
Frames: 4
Frame Time: 0.03333333333333333
0.13284 0.0 1.056195 0.0 0.19653 0.0 0.0 99.984833 0.0 0.431815 -0.002757 0.365607 -0.14944 0.179832 -0.132557 -0.537323 0.067689 -4.870393 -1.17387 -1.89587 4.591384 -0.860395 3.545413 15.294124 -0.460196 -0.961394 -3.710653 -1.913229 0.103787 -8.175846 0.000639 8.6e-05 5.9e-05 0.000126 0.029985 0.07483 0.699924 -3.74918 -10.64412 -0.702889 3.808541 -10.613785 -17.284235 -5.779368 11.260002 -47.688728 -1.477316 -0.722065 0.350994 -50.858837 0.039334 -5.363896 -4.488853 -32.968235 -5.874944 9.828814 0.699959 -10.948872 -0.362746 7.156502 0.011024 8.795017 -0.002414 -17.126957 18.026463 5.794005 -1.844883 2.50809 -2.513616 -10.1638 4.670949 4.624109 -20.946398 -0.029826 -0.002305 -21.219774 2.447289 -3.593625 0.000473 -0.016075 0.018665 -1.365274 2.236113 -0.743529 -21.35507 0.569707 2.994659 -13.836218 -0.02391 0.008531 -23.951071 -0.262678 -0.868149 -60.779579 2.720367 -1.364395 -0.290282 1.692204 0.831851 -14.226822 0.071201 1.298644 -34.213722 -0.309263 0.972328 -20.036171 0.96289 1.197891 0.001072 -0.001653 0.009097 -3.43645 0.798586 0.499292 -15.93525 -3.179087 3.009052 -6.333427 -0.000407 -0.005415 -18.10918 3.63159 -4.89666 -0.003436 -0.007097 -3.4e-05 19.425566 9.611912 12.814133 44.792984 11.061092 11.141544 1.622355 50.744019 1.218219 -3.344461 -0.785553 -21.928419 2.27049 -5.280861 -3.201772 14.301607 -0.817218 6.942538 0.001049 -12.675206 -0.000728 15.848168 -17.677277 2.893137 1.665477 -1.936978 -2.887053 4.724547 -4.167489 5.008821 11.018887 -0.014696 0.007174 12.09908 -3.732076 -2.842931 0.004327 -0.002843 -0.00521 1.292482 -1.904154 -1.485814 14.793344 0.562218 3.859767 14.240013 -1.337788 -6.650841 19.620607 0.142551 -0.64915 50.376518 -0.857916 -6.362273 0.348439 -1.474756 -0.016785 20.213787 3.66149 2.310781 18.783266 0.001702 0.017216 10.730997 -0.492851 1.384358 -0.007925 0.001311 0.009817 3.260453 0.364642 -0.559927 21.486856 11.789602 2.256971 8.156836 0.00314 0.00809 18.391264 -3.816005 -4.926411 -0.005428 0.005946 -0.002901 4.846694 10.354103 -1.910438 -0.008162 -0.347982 7.050449 -8.772187 -1.307483 -4.755916 1.639447 -2.086537 -0.342007 -0.00047 -0.001173 0.005243 -5.387695 -14.392978 -2.894384 0.059904 0.23164 9.96031 6.71929 2.282601 -6.149851 -1.404915 0.976672 0.406925 -0.000825 0.00338 0.001963 
0.034149 0.0 1.088062 0.0 0.165837 0.0 0.0 100.028267 0.0 0.388131 -0.003364 0.496894 -0.176891 0.15488 -0.091623 -0.55084 0.126734 -4.901802 -1.128925 -2.01051 4.693655 -0.800911 3.601836 15.203214 -0.564941 -0.736805 -3.734613 -1.858042 0.189293 -8.097795 0.001807 0.000182 -6.7e-05 0.001793 0.044343 0.070604 0.700817 -3.73045 -10.636852 -0.700096 3.815124 -10.607237 -17.331905 -5.599534 11.460512 -48.92067 -0.412464 2.161707 0.442425 -47.98983 -0.019726 -6.174937 -3.701236 -30.939753 -5.926245 9.841211 0.887414 -10.952335 -0.356064 7.200763 0.002438 8.785874 0.003148 -17.093491 18.073879 5.973201 -1.844676 2.496578 -2.513397 -10.173699 4.675505 4.621646 -20.986206 0.001709 0.012552 -21.260525 2.453073 -3.603678 -0.001785 0.005641 -0.004598 -1.363494 2.231865 -0.749083 -21.342394 0.585984 3.014084 -13.822879 -4.4e-05 0.005199 -23.921799 -0.252391 -0.832805 -60.999237 2.802261 -1.297411 -0.294636 1.682124 0.833362 -14.231928 0.079408 1.296336 -34.298149 -0.282526 0.991551 -20.076324 0.990971 1.216591 -0.009128 0.001594 -0.000297 -3.448618 0.779451 0.500643 -15.924397 -3.158436 2.993508 -6.339145 0.01542 0.003877 -18.118841 3.635484 -4.885538 0.004944 0.002354 -0.006728 19.78125 9.163352 13.426061 45.792896 9.49276 12.508385 1.239775 47.833672 0.916825 -3.169906 -0.942967 -20.345068 2.254302 -5.22787 -3.085378 14.278965 -0.824249 6.995093 -0.010146 -12.68079 0.011879 15.862788 -17.546955 2.876995 1.663603 -1.943799 -2.889869 4.730346 -4.184411 4.977999 11.021738 0.009956 0.006306 12.112399 -3.70629 -2.839739 -0.00242 -0.005729 -0.00292 1.289287 -1.907753 -1.500756 14.80368 0.564697 3.851399 14.248719 -1.339499 -6.671244 19.669258 0.154107 -0.646045 50.278603 -0.779429 -6.269032 0.348174 -1.500563 -0.040922 20.228579 3.679936 2.307716 18.78397 -0.007376 0.007774 10.757535 -0.484181 1.421618 -0.005055 0.004183 0.000167 3.277657 0.301851 -0.604743 21.48963 11.825022 2.260201 8.179905 -0.000951 0.016021 18.388447 -3.784411 -4.927081 -0.000363 0.006841 0.005544 4.950987 10.402571 -1.668425 -0.032893 -0.364618 6.318146 -8.804098 -1.198537 -4.478762 1.64086 -2.077122 -0.438273 -0.000859 -0.00268 0.003865 -5.238582 -14.452462 -2.776054 0.042446 0.217288 9.433246 6.695727 2.375345 -5.841128 -1.403552 0.977054 0.264155 -0.001346 -0.002722 0.003329 
-0.062493 0.0 1.086506 0.0 0.096752 0.0 0.0 100.034592 0.0 0.35131 -0.00373 0.608931 -0.186639 0.14842 -0.042507 -0.579192 0.099362 -4.921453 -1.074465 -2.098393 4.783149 -0.779492 3.627325 15.016808 -0.628259 -0.41794 -3.726171 -1.746549 0.343438 -8.058864 -0.000453 0.001128 0.000257 0.004612 0.054149 0.061876 0.696234 -3.713687 -10.62629 -0.69327 3.816083 -10.594646 -17.398844 -5.266056 11.59657 -50.033485 0.719619 5.400979 0.546166 -44.989349 -0.126812 -7.322112 -2.914577 -28.832699 -5.859367 9.811714 0.766574 -10.953691 -0.348202 7.163669 -0.008599 8.780207 0.002338 -17.027575 18.191259 5.961119 -1.84225 2.485254 -2.514754 -10.145337 4.694911 4.619829 -20.9713 -0.000743 -0.000558 -21.193741 2.477865 -3.613289 -0.002005 -0.001246 -0.006798 -1.359826 2.242747 -0.744977 -21.328859 0.585489 3.011301 -13.802073 0.018236 0.008141 -23.900185 -0.232466 -0.82079 -60.999832 2.812495 -1.373175 -0.289391 1.679343 0.831297 -14.19779 0.102094 1.301754 -34.185646 -0.285972 0.983786 -20.01593 0.973847 1.205689 -0.004376 -0.001703 0.002733 -3.432314 0.782468 0.497663 -15.913796 -3.155119 2.993802 -6.341559 -0.016247 0.00281 -18.085938 3.668386 -4.905201 -0.008694 -0.00254 0.003207 20.299448 8.685101 13.71671 46.713985 7.731345 13.7906 0.636883 44.345425 0.417679 -2.910286 -0.776398 -19.351618 2.244666 -5.254493 -3.200059 14.306931 -0.819862 6.935675 -0.005136 -12.689916 0.001879 15.915114 -17.472832 2.788027 1.664909 -1.94834 -2.88422 4.723472 -4.17883 5.004109 11.014252 -0.011463 0.005734 12.093342 -3.719427 -2.862047 0.005527 -0.005345 0.00609 1.289315 -1.922435 -1.492551 14.792173 0.56063 3.870077 14.226283 -1.354562 -6.657012 19.590342 0.1445 -0.65401 49.938129 -0.757105 -6.231 0.347355 -1.512636 -0.024626 20.207117 3.676789 2.314444 18.765247 0.00962 0.006476 10.750723 -0.491925 1.418767 -0.0019 -0.004742 0.004469 3.261846 0.311089 -0.579231 21.492903 11.823458 2.270606 8.155994 0.007936 0.000751 18.370155 -3.799565 -4.949716 0.001635 -0.014412 0.00053 5.040899 10.48282 -1.755993 -0.048359 -0.388374 6.266707 -8.981608 -1.130377 -4.369458 1.640724 -2.068856 -0.416852 -0.001499 -0.005437 0.000589 -5.087417 -14.362621 -2.931597 0.029591 0.204532 9.467117 6.592446 2.416031 -6.024069 -1.401174 0.960755 0.189987 -0.000596 0.002546 0.001791 
-0.137569 0.0 1.124658 0.0 -0.017378 0.0 0.0 99.985001 0.0 0.343544 -0.00395 0.658627 -0.188358 0.145578 0.040787 -0.622849 0.045213 -4.912879 -1.026725 -2.172313 4.849758 -0.803049 3.665494 14.857123 -0.641252 -0.074956 -3.74697 -1.6241 0.575251 -7.848817 -0.000272 0.001265 0.000286 0.006157 0.056595 0.053108 0.695161 -3.699202 -10.622401 -0.691928 3.806992 -10.597573 -17.393246 -5.013233 11.769837 -51.167274 1.808687 9.076466 0.49982 -41.597115 -0.035137 -8.991272 -1.922872 -26.453522 -5.867642 9.914503 0.722311 -10.928229 -0.369135 7.171201 -0.006455 8.770019 0.008102 -16.877228 18.400467 6.012948 -1.846423 2.500659 -2.505298 -10.171329 4.680355 4.618736 -20.983362 0.003446 0.00561 -21.258152 2.452863 -3.602209 -0.001936 -0.00108 0.005691 -1.368194 2.240033 -0.740196 -21.343224 0.593408 3.012132 -13.829843 0.008493 -0.013813 -23.922544 -0.23231 -0.849359 -61.06567 2.741903 -1.321364 -0.302658 1.659128 0.840551 -14.213954 0.123538 1.290271 -34.243237 -0.29174 0.956185 -20.047216 0.962817 1.204544 0.000956 0.000869 -0.00046 -3.463088 0.779511 0.506662 -15.92447 -3.158561 2.989334 -6.345435 0.002511 0.003238 -18.131365 3.658731 -4.912368 0.004205 -0.000632 -0.002934 20.693239 8.286641 14.10442 47.746216 5.96521 15.146406 0.179218 40.038086 0.055058 -2.160832 -0.698046 -18.317213 2.283536 -5.243599 -3.139978 14.312388 -0.815567 6.96001 0.0051 -12.680497 -0.003815 16.010471 -17.455359 2.710599 1.661378 -1.953026 -2.887197 4.726368 -4.177628 4.992098 11.013421 -0.011481 0.006872 12.095535 -3.739316 -2.852453 0.004105 0.010939 0.001357 1.287126 -1.92678 -1.507799 14.802089 0.567334 3.881674 14.233958 -1.350259 -6.654902 19.611984 0.127817 -0.63846 49.837391 -0.758272 -6.25052 0.346945 -1.524548 -0.044738 20.228333 3.691199 2.341104 18.775316 0.004591 0.007751 10.748075 -0.499354 1.380511 -0.002192 0.002611 0.000104 3.263008 0.299764 -0.582034 21.482922 11.843078 2.280516 8.171571 -0.010517 0.005264 18.401978 -3.788575 -4.925726 0.006954 0.005244 -0.001246 5.094657 10.594655 -2.148399 -0.046717 -0.408166 7.070736 -9.147422 -1.155099 -4.807523 1.6402 -2.063312 -0.277475 -0.00046 0.000809 0.000917 -5.003198 -14.169411 -3.334962 0.022479 0.194139 10.180684 6.434515 2.38078 -6.363141 -1.402376 0.953894 0.192384 -9e-05 0.002106 0.002551 
